<svg xmlns="http://www.w3.org/2000/svg" width="28.284" height="47.284" viewBox="0 0 28.284 47.284">
  <g id="Groupe_13226" data-name="Groupe 13226" transform="translate(-501.949 -428)">
    <path id="Tracé_23686" data-name="Tracé 23686" d="M2.5,0A2.588,2.588,0,0,1,5,2.5a2.5,2.5,0,0,1-5,0A2.588,2.588,0,0,1,2.5,0Z" transform="translate(513.591 438.143)" fill="#b10dc9"/>
    <path id="Tracé_23702" data-name="Tracé 23702" d="M2.5,0A2.588,2.588,0,0,1,5,2.5a2.5,2.5,0,0,1-5,0A2.588,2.588,0,0,1,2.5,0Z" transform="translate(513.591 460.142)" fill="#b10dc9"/>
    <path id="Tracé_23682" data-name="Tracé 23682" d="M5.137,2.564A8.855,8.855,0,0,0,17.444,14.889L20,17.45A12.568,12.568,0,0,1,9.189,19.607a12.075,12.075,0,0,1-5.551-3.217A12.457,12.457,0,0,1,2.58,0Z" transform="translate(501.946 442.141) rotate(-45)" fill="#3f3f3f"/>
    <path id="Tracé_23701" data-name="Tracé 23701" d="M5.137,2.564A8.855,8.855,0,0,0,17.444,14.889L20,17.45A12.568,12.568,0,0,1,9.189,19.607a12.075,12.075,0,0,1-5.551-3.217A12.457,12.457,0,0,1,2.58,0Z" transform="translate(530.236 461.144) rotate(135)" fill="#3f3f3f"/>
  </g>
</svg>
