<svg version="1.1" xmlns="http://www.w3.org/2000/svg" xmlns:xlink="http://www.w3.org/1999/xlink" viewBox="0,0,1024,1024">
	<desc>send icon - Licensed under Apache License v2.0 (http://www.apache.org/licenses/LICENSE-2.0) - Created with Iconfu.com - Derivative work of Material icons (Copyright Google Inc.)</desc>
	<defs>
		<linearGradient x1="512" y1="0" x2="512" y2="1024" gradientUnits="userSpaceOnUse" id="color-KgVnql9F">
			<stop offset="0" stop-color="#e53c5c"/>
			<stop offset="1" stop-color="#ff9eae"/>
		</linearGradient>
		<linearGradient x1="0" y1="0" x2="1024" y2="1024" gradientUnits="userSpaceOnUse" id="color-oFs2lNxV">
			<stop offset="0" stop-color="#e53c5c" stop-opacity="0"/>
			<stop offset="0.5" stop-color="#e53c5c" stop-opacity="0"/>
			<stop offset="0.5" stop-color="#ff9eae" stop-opacity="0.5"/>
			<stop offset="1" stop-color="#ff9eae" stop-opacity="0.5"/>
		</linearGradient>
		<linearGradient x1="273.14" y1="392.46" x2="1435.81" y2="1555.12" gradientUnits="userSpaceOnUse" id="color-zBb0QvzD">
			<stop offset="0.06" stop-color="#000000" stop-opacity="0.4"/>
			<stop offset="0.56" stop-color="#000000" stop-opacity="0"/>
		</linearGradient>
	</defs>
	<g fill="none" fill-rule="nonzero" style="mix-blend-mode: normal">
		<path d="M825.75,1024h-627.51c-109.49,0 -198.25,-88.76 -198.25,-198.25v-627.51c0,-109.49 88.76,-198.25 198.25,-198.25h627.51c109.49,0 198.25,88.76 198.25,198.25v627.51c0,109.49 -88.76,198.25 -198.25,198.25z" fill="url(#color-KgVnql9F)"/>
		<path d="M825.75,1024h-627.51c-109.49,0 -198.25,-88.76 -198.25,-198.25v-627.51c0,-109.49 88.76,-198.25 198.25,-198.25h627.51c109.49,0 198.25,88.76 198.25,198.25v627.51c0,109.49 -88.76,198.25 -198.25,198.25z" fill="url(#color-oFs2lNxV)"/>
		<path d="M213.33,452.27l448,59.73l53.78,53.78l125.42,-53.78l183.47,183.47v130.28c0,109.49 -88.76,198.25 -198.25,198.25h-368.92l-243.2,-243.2l229.73,-98.5z" fill="url(#color-zBb0QvzD)"/>
		<path d="M213.33,571.73l448,-59.73l-448,-59.73l0.3,-209.07l626.9,268.8l-626.9,268.8z" fill="#ffffff"/>
	</g>
</svg>