<svg version="1.1" xmlns="http://www.w3.org/2000/svg" xmlns:xlink="http://www.w3.org/1999/xlink" viewBox="0,0,1024,1024">
	<desc>youtube_searched_for icon - Licensed under Apache License v2.0 (http://www.apache.org/licenses/LICENSE-2.0) - Created with Iconfu.com - Derivative work of Material icons (Copyright Google Inc.)</desc>
	<defs>
		<linearGradient x1="387.51" y1="349.84" x2="1607.79" y2="1570.12" gradientUnits="userSpaceOnUse" id="color-1q7bryqO">
			<stop offset="0.06" stop-color="#000000" stop-opacity="0.4"/>
			<stop offset="0.56" stop-color="#000000" stop-opacity="0"/>
		</linearGradient>
		<linearGradient x1="0" y1="0" x2="1024" y2="1024" gradientUnits="userSpaceOnUse" id="color-gCKfER0M">
			<stop offset="0" stop-color="#d451ad" stop-opacity="0"/>
			<stop offset="0.5" stop-color="#d451ad" stop-opacity="0"/>
			<stop offset="0.5" stop-color="#f243bf" stop-opacity="0.5"/>
			<stop offset="1" stop-color="#f243bf" stop-opacity="0.5"/>
		</linearGradient>
		<linearGradient x1="512" y1="0" x2="512" y2="1024" gradientUnits="userSpaceOnUse" id="color-ReE9g5f5">
			<stop offset="0" stop-color="#d451ad"/>
			<stop offset="1" stop-color="#f243bf"/>
		</linearGradient>
	</defs>
	<g fill="none" fill-rule="nonzero" style="mix-blend-mode: normal">
		<path d="M825.75,1024h-627.51c-109.49,0 -198.25,-88.76 -198.25,-198.25v-627.51c0,-109.49 88.76,-198.25 198.25,-198.25h627.51c109.49,0 198.25,88.76 198.25,198.25v627.51c0,109.49 -88.76,198.25 -198.25,198.25z" fill="url(#color-ReE9g5f5)"/>
		<path d="M825.75,1024h-627.51c-109.49,0 -198.25,-88.76 -198.25,-198.25v-627.51c0,-109.49 88.76,-198.25 198.25,-198.25h627.51c109.49,0 198.25,88.76 198.25,198.25v627.51c0,109.49 -88.76,198.25 -198.25,198.25z" fill="url(#color-gCKfER0M)"/>
		<path d="M328.02,564.57l71.11,-68.37l-51.1,-51.1c0,-74.67 60.33,-134.4 134.4,-134.4c37.07,0 70.7,15.04 95.05,39.39l99.04,99.04c0.03,-1.34 0.04,-2.68 0.04,-4.03c0,-53.61 -21.73,-102.14 -56.86,-137.27l404.3,404.3v113.63c0,109.49 -88.76,198.25 -198.25,198.25h-38.3z" fill="url(#color-1q7bryqO)"/>
		<path d="M810.67,728.84l-44.51,44.2l-149.63,-149.03v-23.6l-8.06,-8.06c-34.05,29.27 -77.95,46.89 -126.03,46.89c-36.14,0 -69.59,-9.86 -98.56,-26.88l44.2,-44.21c16.72,7.17 34.94,11.35 54.36,11.35c74.07,0 134.4,-60.33 134.4,-134.4c0,-74.37 -60.33,-134.4 -134.4,-134.4c-74.07,0 -134.4,59.73 -134.4,134.4h104.24l-124.25,119.47l-114.69,-119.47h74.97c0,-104.53 86.91,-194.13 194.13,-194.13c107.22,0 194.13,86.91 194.13,194.13c0,48.38 -17.62,92.29 -46.89,126.34l8.06,8.06h23.89z" fill="#ffffff"/>
	</g>
</svg>