<svg version="1.1" xmlns="http://www.w3.org/2000/svg" xmlns:xlink="http://www.w3.org/1999/xlink" viewBox="0,0,1024,1024">
	<desc>redeem icon - Licensed under Apache License v2.0 (http://www.apache.org/licenses/LICENSE-2.0) - Created with Iconfu.com - Derivative work of Material icons (Copyright Google Inc.)</desc>
	<defs>
		<linearGradient x1="0" y1="0" x2="1024" y2="1024" gradientUnits="userSpaceOnUse" id="color-P9eRDSBq">
			<stop offset="0" stop-color="#13aa82" stop-opacity="0"/>
			<stop offset="0.5" stop-color="#13aa82" stop-opacity="0"/>
			<stop offset="0.5" stop-color="#35e0b2" stop-opacity="0.5"/>
			<stop offset="1" stop-color="#35e0b2" stop-opacity="0.5"/>
		</linearGradient>
		<linearGradient x1="310.4" y1="370.13" x2="1575.1" y2="1634.83" gradientUnits="userSpaceOnUse" id="color-SeFnE8zF">
			<stop offset="0.06" stop-color="#000000" stop-opacity="0.4"/>
			<stop offset="0.56" stop-color="#000000" stop-opacity="0"/>
		</linearGradient>
		<linearGradient x1="512" y1="0" x2="512" y2="1024" gradientUnits="userSpaceOnUse" id="color-YcIBP0Nt">
			<stop offset="0" stop-color="#13aa82"/>
			<stop offset="1" stop-color="#35e0b2"/>
		</linearGradient>
	</defs>
	<g fill="none" fill-rule="nonzero" style="mix-blend-mode: normal">
		<path d="M825.75,1024h-627.51c-109.49,0 -198.25,-88.76 -198.25,-198.25v-627.51c0,-109.49 88.76,-198.25 198.25,-198.25h627.51c109.49,0 198.25,88.76 198.25,198.25v627.51c0,109.49 -88.76,198.25 -198.25,198.25z" fill="url(#color-YcIBP0Nt)"/>
		<path d="M825.75,1024h-627.51c-109.49,0 -198.25,-88.76 -198.25,-198.25v-627.51c0,-109.49 88.76,-198.25 198.25,-198.25h627.51c109.49,0 198.25,88.76 198.25,198.25v627.51c0,109.49 -88.76,198.25 -198.25,198.25z" fill="url(#color-P9eRDSBq)"/>
		<path d="M273.07,736v-59.74h89.6l-89.6,-89.6v-179.2h151.72l42.67,42.67l14.67,-19.97l4.4,-5.98l-85.22,-85.22c-5.41,-5.41 -8.77,-12.88 -8.77,-21.1c0,-16.43 13.44,-29.86 29.87,-29.86c8.22,0 15.68,3.36 21.1,8.77l204.7,204.7l13.13,-9.49l-62.12,-84.52h31.65l-118.87,-118.87l-14.93,-20.31c-3.3,-4.89 -7.07,-9.46 -11.23,-13.62l152.8,152.8h10.38l-68.5,-68.5c-5.41,-5.41 -8.77,-12.88 -8.77,-21.1c0,-16.43 13.44,-29.86 29.87,-29.86c8.22,0 15.68,3.36 21.1,8.77l110.69,110.69h12.17l-59.73,-59.73c3.28,-9.26 5.38,-19.42 5.38,-29.87c0,-24.79 -10,-47.19 -26.21,-63.39l145.18,145.18c-1.73,-13.43 -7.87,-25.41 -16.93,-34.48l230.76,230.76v229.82c0,109.49 -88.76,198.25 -198.25,198.25h-349.29l-245.7,-245.7c10.79,10.79 25.73,17.44 42.3,17.44h59.73z" fill="url(#color-SeFnE8zF)"/>
		<path d="M810.67,407.47v328.54c0,33.15 -26.59,59.73 -59.74,59.73h-477.86c-33.15,0 -59.74,-26.58 -59.74,-59.73l0.3,-328.54c0,-33.15 26.29,-59.73 59.44,-59.73h65.11c-3.28,-9.26 -5.38,-19.42 -5.38,-29.87c0,-49.58 40.02,-89.6 89.6,-89.6c31.36,0 58.54,16.13 74.67,40.03l14.93,20.31l14.93,-20.01c16.13,-24.19 43.31,-40.32 74.67,-40.32c49.58,0 89.6,40.02 89.6,89.6c0,10.45 -2.09,20.61 -5.38,29.87h65.11c33.15,0 59.74,26.58 59.74,59.73zM750.93,407.47h-151.72l62.12,84.52l-48.38,34.94l-71.08,-96.77l-29.87,-40.62l-29.87,40.62l-71.08,96.77l-48.38,-34.94l62.12,-84.52h-151.72v179.2h477.86zM750.93,676.27h-477.86v59.74h477.86zM571.73,317.87c0,16.43 13.44,29.87 29.87,29.87c16.43,0 29.87,-13.44 29.87,-29.87c0,-16.43 -13.44,-29.86 -29.87,-29.86c-16.43,0 -29.87,13.43 -29.87,29.86zM392.53,317.87c0,16.43 13.44,29.87 29.87,29.87c16.43,0 29.87,-13.44 29.87,-29.87c0,-16.43 -13.44,-29.86 -29.87,-29.86c-16.43,0 -29.87,13.43 -29.87,29.86z" fill="#ffffff"/>
	</g>
</svg>