<svg version="1.1" xmlns="http://www.w3.org/2000/svg" xmlns:xlink="http://www.w3.org/1999/xlink" viewBox="0,0,1024,1024">
	<desc>timer_off icon - Licensed under Apache License v2.0 (http://www.apache.org/licenses/LICENSE-2.0) - Created with Iconfu.com - Derivative work of Material icons (Copyright Google Inc.)</desc>
	<defs>
		<linearGradient x1="512" y1="0" x2="512" y2="1024" gradientUnits="userSpaceOnUse" id="color-BL006E4c">
			<stop offset="0" stop-color="#ffb9b9"/>
			<stop offset="1" stop-color="#ea6f6f"/>
		</linearGradient>
		<linearGradient x1="0" y1="0" x2="1024" y2="1024" gradientUnits="userSpaceOnUse" id="color-dU80GpzR">
			<stop offset="0" stop-color="#ffb9b9" stop-opacity="0"/>
			<stop offset="0.5" stop-color="#ffb9b9" stop-opacity="0"/>
			<stop offset="0.5" stop-color="#ea6f6f" stop-opacity="0.5"/>
			<stop offset="1" stop-color="#ea6f6f" stop-opacity="0.5"/>
		</linearGradient>
		<linearGradient x1="338.46" y1="327.14" x2="1612.83" y2="1601.5" gradientUnits="userSpaceOnUse" id="color-QmkKJFMq">
			<stop offset="0.06" stop-color="#000000" stop-opacity="0.4"/>
			<stop offset="0.56" stop-color="#000000" stop-opacity="0"/>
		</linearGradient>
	</defs>
	<g fill="none" fill-rule="nonzero" style="mix-blend-mode: normal">
		<path d="M825.75,1024h-627.51c-109.49,0 -198.25,-88.76 -198.25,-198.25v-627.51c0,-109.49 88.76,-198.25 198.25,-198.25h627.51c109.49,0 198.25,88.76 198.25,198.25v627.51c0,109.49 -88.76,198.25 -198.25,198.25z" fill="url(#color-BL006E4c)"/>
		<path d="M825.75,1024h-627.51c-109.49,0 -198.25,-88.76 -198.25,-198.25v-627.51c0,-109.49 88.76,-198.25 198.25,-198.25h627.51c109.49,0 198.25,88.76 198.25,198.25v627.51c0,109.49 -88.76,198.25 -198.25,198.25z" fill="url(#color-dU80GpzR)"/>
		<path d="M364.12,689.74c-37.82,-37.82 -61.19,-90.08 -61.19,-147.87c0,-38.23 10.46,-74.07 28.38,-105.13l329.25,329.25c0.06,-0.04 0.12,-0.08 0.18,-0.12l74.67,74.66l37.93,-37.93l177.21,177.21c-34.07,27.63 -77.49,44.19 -124.78,44.19h-211.86l-291.99,-291.99c42.32,42.32 98.72,70.58 161.67,77.18zM541.87,495.28v-0.29l-134.11,-134.11c30.46,-17.62 66.3,-28.08 104.24,-28.08l-89.6,-89.6h179.2v-59.73l155.6,155.6l7.17,-7.17l-42.11,-42.41l301.74,301.74v234.52c0,42.85 -13.59,82.53 -36.71,114.95z" fill="url(#color-QmkKJFMq)"/>
		<path d="M773.33,802.61l-37.93,37.93l-74.67,-74.66c-42.71,28.37 -93.78,44.8 -148.74,44.8c-148.74,0 -268.8,-120.36 -268.8,-268.8c0,-54.96 16.43,-106.03 44.8,-148.44l-82.13,-82.43l37.93,-37.93zM764.37,331.9l-42.41,42.41c36.74,46 58.83,104.24 58.83,167.55c0,54.66 -16.42,105.43 -44.5,147.54l-43.31,-43.31c17.62,-30.46 28.08,-66.3 28.08,-104.23c0,-115.58 -93.48,-209.07 -209.07,-209.07c-37.93,0 -73.77,10.46 -104.24,28.08l-43.6,-43.61c42.41,-27.78 93.18,-44.2 147.84,-44.2c63.32,0 121.56,22.1 167.85,58.83l42.41,-42.41zM616.83,722.26l-285.52,-285.52c-17.92,31.06 -28.38,66.91 -28.38,105.13c0,115.58 93.49,209.06 209.07,209.06c38.23,0 74.07,-10.45 104.83,-28.67zM601.6,243.2h-179.2v-59.73h179.2zM482.13,392.53h59.74v102.75l-59.74,-59.74z" fill="#ffffff"/>
	</g>
</svg>