<svg version="1.1" xmlns="http://www.w3.org/2000/svg" xmlns:xlink="http://www.w3.org/1999/xlink" viewBox="0,0,1024,1024">
	<desc>settings icon - Licensed under Apache License v2.0 (http://www.apache.org/licenses/LICENSE-2.0) - Created with Iconfu.com - Derivative work of Material icons (Copyright Google Inc.)</desc>
	<defs>
		<linearGradient x1="512" y1="0" x2="512" y2="1024" gradientUnits="userSpaceOnUse" id="color-iJPJaMBo">
			<stop offset="0" stop-color="#d7d3dd"/>
			<stop offset="1" stop-color="#af96d4"/>
		</linearGradient>
		<linearGradient x1="329.02" y1="329.02" x2="1546.52" y2="1546.52" gradientUnits="userSpaceOnUse" id="color-pX77jF64">
			<stop offset="0.06" stop-color="#000000" stop-opacity="0.4"/>
			<stop offset="0.56" stop-color="#000000" stop-opacity="0"/>
		</linearGradient>
		<linearGradient x1="0" y1="0" x2="1024" y2="1024" gradientUnits="userSpaceOnUse" id="color-TdsgyH4r">
			<stop offset="0" stop-color="#d7d3dd" stop-opacity="0"/>
			<stop offset="0.5" stop-color="#d7d3dd" stop-opacity="0"/>
			<stop offset="0.5" stop-color="#af96d4" stop-opacity="0.5"/>
			<stop offset="1" stop-color="#af96d4" stop-opacity="0.5"/>
		</linearGradient>
	</defs>
	<g fill="none" fill-rule="nonzero" style="mix-blend-mode: normal">
		<path d="M825.75,1024h-627.51c-109.49,0 -198.25,-88.76 -198.25,-198.25v-627.51c0,-109.49 88.76,-198.25 198.25,-198.25h627.51c109.49,0 198.25,88.76 198.25,198.25v627.51c0,109.49 -88.76,198.25 -198.25,198.25z" fill="url(#color-iJPJaMBo)"/>
		<path d="M825.75,1024h-627.51c-109.49,0 -198.25,-88.76 -198.25,-198.25v-627.51c0,-109.49 88.76,-198.25 198.25,-198.25h627.51c109.49,0 198.25,88.76 198.25,198.25v627.51c0,109.49 -88.76,198.25 -198.25,198.25z" fill="url(#color-TdsgyH4r)"/>
		<path d="M438.12,585.88c-18.93,-18.93 -30.65,-45.06 -30.65,-73.88c0,-57.64 46.89,-104.53 104.53,-104.53c28.82,0 54.96,11.72 73.88,30.65l198.85,198.85l15.78,-27.3c0.22,-0.4 0.41,-0.8 0.59,-1.2l-67.2,-67.2c1.2,-9.55 2.09,-19.11 2.09,-29.27c0,-10.16 -0.9,-19.71 -2.09,-29.27l23.3,-18.22l-159.49,-159.49l-11.35,-79.15c-0.4,-3.2 -1.87,-6.03 -4.03,-8.2l215.24,215.24c5.14,-4.57 6.38,-12.26 2.94,-18.58l-59.73,-103.34c-0.65,-1.2 -1.46,-2.26 -2.38,-3.18l285.6,285.6v232.34c0,109.49 -88.76,198.25 -198.25,198.25h-232.34l-307.82,-307.82c4.1,4.1 10.47,5.34 15.84,3.39l74.37,-29.86c15.53,11.95 32.26,21.8 50.48,29.27l91.69,91.69h53.75c7.47,0 13.74,-5.38 14.64,-12.54l0.66,-4.57l-361.26,-361.26c0.41,0.41 0.85,0.8 1.31,1.17l63.02,49.28l298.67,298.67l5.63,-39.25z" fill="url(#color-pX77jF64)"/>
		<path d="M796.93,590.55c5.68,4.48 7.17,12.54 3.58,19.12l-59.73,103.34c-3.58,6.57 -11.35,9.25 -18.22,6.57l-74.37,-29.86c-15.53,11.65 -32.26,21.8 -50.48,29.27l-11.35,79.15c-0.9,7.17 -7.17,12.54 -14.64,12.54h-119.46c-7.47,0 -13.74,-5.38 -14.64,-12.54l-11.35,-79.15c-18.22,-7.47 -34.94,-17.32 -50.48,-29.27l-74.37,29.86c-6.57,2.39 -14.64,0.01 -18.22,-6.57l-59.73,-103.34c-3.58,-6.57 -2.09,-14.64 3.58,-19.12l63.02,-49.28c-1.2,-9.55 -2.09,-19.41 -2.09,-29.27c0,-9.86 0.9,-19.71 2.09,-29.27l-63.02,-49.28c-5.68,-4.48 -7.47,-12.54 -3.58,-19.12l59.73,-103.34c3.58,-6.57 11.35,-9.25 18.22,-6.57l74.37,29.86c15.53,-11.65 32.26,-21.8 50.48,-29.27l11.35,-79.15c0.9,-7.17 7.17,-12.54 14.64,-12.54h119.46c7.47,0 13.74,5.38 14.64,12.54l11.35,79.15c18.22,7.47 34.94,17.32 50.48,29.27l74.37,-29.86c6.57,-2.39 14.64,-0.01 18.22,6.57l59.73,103.34c3.58,6.57 2.09,14.64 -3.58,19.12l-63.02,49.28c1.2,9.56 2.09,19.11 2.09,29.27c0,10.16 -0.9,19.71 -2.09,29.27zM616.53,512c0,-57.64 -46.89,-104.53 -104.53,-104.53c-57.64,0 -104.53,46.89 -104.53,104.53c0,57.64 46.89,104.53 104.53,104.53c57.64,0 104.53,-46.89 104.53,-104.53z" fill="#ffffff"/>
	</g>
</svg>