<svg version="1.1" xmlns="http://www.w3.org/2000/svg" xmlns:xlink="http://www.w3.org/1999/xlink" viewBox="0,0,1024,1024">
	<desc>show_chart icon - Licensed under Apache License v2.0 (http://www.apache.org/licenses/LICENSE-2.0) - Created with Iconfu.com - Derivative work of Material icons (Copyright Google Inc.)</desc>
	<defs>
		<linearGradient x1="0" y1="0" x2="1024" y2="1024" gradientUnits="userSpaceOnUse" id="color-PcYfkE1e">
			<stop offset="0" stop-color="#4169e1" stop-opacity="0"/>
			<stop offset="0.5" stop-color="#4169e1" stop-opacity="0"/>
			<stop offset="0.5" stop-color="#6495ed" stop-opacity="0.5"/>
			<stop offset="1" stop-color="#6495ed" stop-opacity="0.5"/>
		</linearGradient>
		<linearGradient x1="512" y1="0" x2="512" y2="1024" gradientUnits="userSpaceOnUse" id="color-uthgSYxn">
			<stop offset="0" stop-color="#4169e1"/>
			<stop offset="1" stop-color="#6495ed"/>
		</linearGradient>
		<linearGradient x1="437.86" y1="436.51" x2="1421.17" y2="1419.83" gradientUnits="userSpaceOnUse" id="color-UtlAJyS3">
			<stop offset="0.06" stop-color="#000000" stop-opacity="0.4"/>
			<stop offset="0.56" stop-color="#000000" stop-opacity="0"/>
		</linearGradient>
	</defs>
	<g fill="none" fill-rule="nonzero" style="mix-blend-mode: normal">
		<path d="M825.75,1024h-627.51c-109.49,0 -198.25,-88.76 -198.25,-198.25v-627.51c0,-109.49 88.76,-198.25 198.25,-198.25h627.51c109.49,0 198.25,88.76 198.25,198.25v627.51c0,109.49 -88.76,198.25 -198.25,198.25z" fill="url(#color-uthgSYxn)"/>
		<path d="M825.75,1024h-627.51c-109.49,0 -198.25,-88.76 -198.25,-198.25v-627.51c0,-109.49 88.76,-198.25 198.25,-198.25h627.51c109.49,0 198.25,88.76 198.25,198.25v627.51c0,109.49 -88.76,198.25 -198.25,198.25z" fill="url(#color-PcYfkE1e)"/>
		<path d="M258.13,705.84l179.2,-179.5l119.47,119.47l253.87,-285.53l213.33,213.33v252.15c0,109.49 -88.76,198.25 -198.25,198.25h-249.46z" fill="url(#color-UtlAJyS3)"/>
		<path d="M213.33,661.04l224,-224.3l119.47,119.47l211.76,-238.04l42.11,42.11l-253.87,285.53l-119.47,-119.47l-179.2,179.5z" fill="#ffffff"/>
	</g>
</svg>